<!-- Uploaded to: SVG Repo, www.svgrepo.com, Generator: SVG Repo Mixer Tools -->
<svg width="32px" height="32px" viewBox="0 0 32 32" xmlns="http://www.w3.org/2000/svg">
    <title>VBA</title>

    <polygon id="blue-box" fill="#6483c0" points="10.5,13 10.5,8 15.8,5.5 21.3,8 21.3,13" />
    <path d="M16.2,15.6 l-6-3.1 V7.8 L16.2,10.7 ZM10.6,12.3 15.8,15 V11 l-5.2-2.6Z"/>
    <path d="M16.2,15.6 V10.7 l5.3-2.7 v4.9 Z m.4-4.7 v4 L21.1,12.7 V8.7 Z"/>
    <path d="M16.2,10.8 l-5.9-3,5.5-2.6,5.7,2.9 Z M11.1,7.8 l5.1,2.6,4.5-2.3-4.9-2.5Z"/>

    <polygon id="orange-box" fill="#d87b30" points="2.2,12.3 7.8,10 13,12.5 13,17.5 8,19.8 2.2,16.7" />
    <path d="M7.9,20 2,17 V12.2 l5.9,2.9 Z M2.4,16.7 l5.2,2.7 V15.4 L2.4,12.8 Z"/>
    <path d="M7.9,20 V15.2 l5.3-2.7 v4.9 Z m.4-4.7 v4 L12.9,17.1 V13 Z"/>
    <path d="M7.9,15.2 2,12.2 l5.6-2.4,5.6,2.7 Z M2.9,12.2 l5,2.6,4.5-2.3-4.8-2.3 Z"/>

    <polygon id="purple-box" fill="#952781" points="19,12.8 24.4,10.5 29.9,13 29.9,17.7 24.8,20 19,17" />
    <path d="M 24.7,20.3 l-5.9-3.1 v-4.7 L 24.7,15.5 Z m-5.6-3.3,5.2,2.7 V15.7 l-5.2-2.6 Z"/>
    <path d="M 24.7,20.3 V15.5 L30,12.8 v4.9 Z m.37-4.7 v4 l4.6-2.3 V13.4 Z"/>
    <path d="M 24.7,15.5 l-5.9-3,5.6-2.4 L30,12.8 Z M19.6,12.6 l5,2.6,4.5-2.3-4.8-2.3 Z"/>

    <polygon id="yellow-box" fill="#e0d400" points="11,13 16.2,10.8 21.8,13.3 21.8,18 16.7,20.7 11,17.7" />
    <path d="M16.6,20.8 10.7,17.7 V13 l5.9,2.9 Z M 11,17.5 l5.2,2.7 V16.2 L11,13.6 Z"/>
    <path d="M16.6,20.8 V15.9 l5.3-2.67 v4.9 Z m.4-4.7 v4 L21.5,17.9 V13.9 Z"/>
    <path d="M16.6,16 l-5.9-3,5.5-2.6,5.7,2.8 Z M 11.54,13 l5,2.57,4.5-2.3-4.9-2.5Z"/>

    <text id="vba" x="8" y="27" fill="#ccc" font-size="8" textLength="16" >VBA</text>
</svg>