<?xml version="1.0" encoding="UTF-8"?>
<svg xmlns="http://www.w3.org/2000/svg" width="320px" height="320px" viewBox="0 0 320 320">
<polygon id="blue-box" fill="#6483c0" points="105,130 105,80 158,55 213,80 213,130"></polygon>
<path d="M162,156 l-60-31 V78 L162,107 ZM106,123 158,150 V110 l-52-26Z"></path>
<path d="M162,156 V107 l53-27 v49 Z m4-47 v40 L211,127 V87 Z"></path>
<path d="M162,108 l-59-30,55-26,57,29 Z M111,78 l51,26,45-23-49-25Z"></path>
<polygon id="orange-box" fill="#d87b30" points="22,123 78,100 130,125 130,175 80,198 22,167"></polygon>
<path d="M79,200 20,170 V122 l59,29 Z M24,167 l52,27 V154 L24,128 Z"></path>
<path d="M79,200 V152 l53-27 v49 Z m4-47 v40 L129,171 V130 Z"></path>
<path d="M79,152 20,122 l56-24,56,27 Z M29,122 l50,26,45-23-48-23 Z"></path>
<polygon id="purple-box" fill="#952781" points="190,128 244,105 299,130 299,177 248,200 190,170"></polygon>
<path d="M 247,203 l-59-31 v-47 L 247,155 Z m-56-33,52,27 V157 l-52-26 Z"></path>
<path d="M 247,203 V155 L300,128 v49 Z m3.7-47 v40 l46-23 V134 Z"></path>
<path d="M 247,155 l-59-30,56-24 L300,128 Z M196,126 l50,26,45-23-48-23 Z"></path>
<polygon id="yellow-box" fill="#e0d400" points="110,130 162,108 218,133 218,180 167,207 110,177"></polygon>
<path d="M166,208 107,177 V130 l59,29 Z M 110,175 l52,27 V162 L110,136 Z"></path>
<path d="M166,208 V159 l53-27 v49 Z m4-47 v40 L215,179 V139 Z"></path>
<path d="M166,160 l-59-30,55-26,57,28 Z M 115,130 l50,26,45-23-49-25Z"></path>
<text id="vba" x="80" y="270" fill="#ccc" font-size="80" textLength="160" font-family="monospace">VBA</text>
</svg>