<?xml version="1.0" encoding="UTF-8"?>
<!DOCTYPE svg PUBLIC "-//W3C//DTD SVG 1.1//EN" "http://www.w3.org/Graphics/SVG/1.1/DTD/svg11.dtd">
<svg xmlns="http://www.w3.org/2000/svg" version="1.1" width="140px" height="140px" style="fill-rule:evenodd; clip-rule:evenodd" xmlns:xlink="http://www.w3.org/1999/xlink">
<g fill='white'>
<path d="M 71.5,-0.5 C 74.5,-0.5 77.5,-0.5 80.5,-0.5C 80.5,4.16667 80.5,8.83333 80.5,13.5C 100.169,13.3334 119.836,13.5 139.5,14C 140.044,14.7172 140.711,15.2172 141.5,15.5C 141.5,50.5 141.5,85.5 141.5,120.5C 121.242,121.488 100.909,121.821 80.5,121.5C 80.5,125.833 80.5,130.167 80.5,134.5C 77.1667,134.5 73.8333,134.5 70.5,134.5C 47.0198,129.862 23.3532,125.529 -0.5,121.5C -0.5,85.1667 -0.5,48.8333 -0.5,12.5C 23.7124,8.65518 47.7124,4.32185 71.5,-0.5 Z M 80.5,17.5 C 99.1696,17.3334 117.836,17.5001 136.5,18C 137.163,34.4276 137.497,50.9276 137.5,67.5C 137.497,84.0724 137.163,100.572 136.5,117C 117.836,117.5 99.1696,117.667 80.5,117.5C 80.5,113.833 80.5,110.167 80.5,106.5C 86.8333,106.5 93.1667,106.5 99.5,106.5C 99.5,102.833 99.5,99.1667 99.5,95.5C 93.1667,95.5 86.8333,95.5 80.5,95.5C 80.5,93.5 80.5,91.5 80.5,89.5C 86.8333,89.5 93.1667,89.5 99.5,89.5C 99.5,85.8333 99.5,82.1667 99.5,78.5C 93.1667,78.5 86.8333,78.5 80.5,78.5C 80.5,76.5 80.5,74.5 80.5,72.5C 86.8333,72.5 93.1667,72.5 99.5,72.5C 99.5,68.8333 99.5,65.1667 99.5,61.5C 93.1667,61.5 86.8333,61.5 80.5,61.5C 80.5,59.5 80.5,57.5 80.5,55.5C 86.8333,55.5 93.1667,55.5 99.5,55.5C 99.5,51.8333 99.5,48.1667 99.5,44.5C 93.1667,44.5 86.8333,44.5 80.5,44.5C 80.5,42.5 80.5,40.5 80.5,38.5C 86.8333,38.5 93.1667,38.5 99.5,38.5C 99.5,34.8333 99.5,31.1667 99.5,27.5C 93.1667,27.5 86.8333,27.5 80.5,27.5C 80.5,24.1667 80.5,20.8333 80.5,17.5 Z M 48.5,49.5 C 66.6004,49.1121 73.4337,57.7788 69,75.5C 68.5348,76.9308 67.7014,78.0975 66.5,79C 68.2077,80.5095 69.8744,82.0095 71.5,83.5C 70.5197,84.9814 69.353,86.3147 68,87.5C 65.586,85.7093 63.086,84.0426 60.5,82.5C 49.7623,86.6379 42.2623,83.3046 38,72.5C 35.6823,61.8799 39.1823,54.2132 48.5,49.5 Z M 8.5,50.5 C 15.175,50.3337 21.8417,50.5004 28.5,51C 35.5922,56.2309 36.2588,62.2309 30.5,69C 25.2919,70.3967 19.9586,70.8967 14.5,70.5C 14.5,74.8333 14.5,79.1667 14.5,83.5C 12.5,83.5 10.5,83.5 8.5,83.5C 8.5,72.5 8.5,61.5 8.5,50.5 Z"/>
<path d="M 104.5,27.5 C 111.833,27.5 119.167,27.5 126.5,27.5C 126.5,31.1667 126.5,34.8333 126.5,38.5C 119.167,38.5 111.833,38.5 104.5,38.5C 104.5,34.8333 104.5,31.1667 104.5,27.5 Z"/>
<path d="M 104.5,44.5 C 111.833,44.5 119.167,44.5 126.5,44.5C 126.5,48.1667 126.5,51.8333 126.5,55.5C 119.167,55.5 111.833,55.5 104.5,55.5C 104.5,51.8333 104.5,48.1667 104.5,44.5 Z"/>
<path d="M 50.5,55.5 C 62.2231,55.7382 66.2231,61.5715 62.5,73C 62.1667,73.5 61.8333,74 61.5,74.5C 58.1874,70.4876 55.1874,70.6543 52.5,75C 53.5,76 54.5,77 55.5,78C 51.0479,78.8603 47.5479,77.3603 45,73.5C 44.3333,69.5 44.3333,65.5 45,61.5C 46.3597,58.9774 48.193,56.9774 50.5,55.5 Z"/>
<path d="M 14.5,56.5 C 18.1817,56.3347 21.8484,56.5014 25.5,57C 28.1667,59.6667 28.1667,62.3333 25.5,65C 21.8484,65.4986 18.1817,65.6653 14.5,65.5C 14.5,62.5 14.5,59.5 14.5,56.5 Z"/>
<path d="M 104.5,61.5 C 111.833,61.5 119.167,61.5 126.5,61.5C 126.5,65.1667 126.5,68.8333 126.5,72.5C 119.167,72.5 111.833,72.5 104.5,72.5C 104.5,68.8333 104.5,65.1667 104.5,61.5 Z"/>
<path d="M 104.5,78.5 C 111.833,78.5 119.167,78.5 126.5,78.5C 126.5,82.1667 126.5,85.8333 126.5,89.5C 119.167,89.5 111.833,89.5 104.5,89.5C 104.5,85.8333 104.5,82.1667 104.5,78.5 Z"/>
<path d="M 104.5,95.5 C 111.833,95.5 119.167,95.5 126.5,95.5C 126.5,99.1667 126.5,102.833 126.5,106.5C 119.167,106.5 111.833,106.5 104.5,106.5C 104.5,102.833 104.5,99.1667 104.5,95.5 Z"/>
</g>
</svg>
