<?xml version="1.0" encoding="UTF-8"?>
<svg xmlns="http://www.w3.org/2000/svg" version="1.1" width="140px" height="140px" xmlns:xlink="http://www.w3.org/1999/xlink">

<title>Power Query Logo</title>

<polygon fill='#1D5D3B' points="0,12 80,0 80,140, 0,128" />
<rect fill="#1D5D3B" x="80" y="15" width="60" height="110" />
<rect fill="white" x="80" y="20" width="55" height="100" />

<g fill="#1D5D3B">
    <rect x="76" y="30" width="22" height="12" />
    <rect x="76" y="47" width="22" height="12" />
    <rect x="76" y="64" width="22" height="12" />
    <rect x="76" y="81" width="22" height="12" />
    <rect x="76" y="98" width="22" height="12" />

    <rect x="103" y="30" width="22" height="12" />
    <rect x="103" y="47" width="22" height="12" />
    <rect x="103" y="64" width="22" height="12" />
    <rect x="103" y="81" width="22" height="12" />
    <rect x="103" y="98" width="22" height="12" />
</g>

<text id="PQ" x="7" y="83" fill="white" font-size="45" style="font-family:sans-serif;font-weight:bold">
    PQ
</text>
</svg>